<?xml version="1.0" encoding="UTF-8" standalone="no"?>
<svg
   xmlns:dc="http://purl.org/dc/elements/1.1/"
   xmlns:cc="http://creativecommons.org/ns#"
   xmlns:rdf="http://www.w3.org/1999/02/22-rdf-syntax-ns#"
   xmlns:svg="http://www.w3.org/2000/svg"
   xmlns="http://www.w3.org/2000/svg"
   xmlns:sodipodi="http://sodipodi.sourceforge.net/DTD/sodipodi-0.dtd"
   xmlns:inkscape="http://www.inkscape.org/namespaces/inkscape"
   version="1.0"
   width="499.328097pt"
   height="499.608089pt"
   viewBox="0 0 499.328097 499.608089"
   preserveAspectRatio="xMidYMid meet"
   id="svg218"
   sodipodi:docname="tree_of_life_pic.svg"
   inkscape:version="1.0.2-2 (e86c870879, 2021-01-15)">
  <defs
     id="defs222" />
  <sodipodi:namedview
     pagecolor="#ffffff"
     bordercolor="#666666"
     borderopacity="1"
     objecttolerance="10"
     gridtolerance="10"
     guidetolerance="10"
     inkscape:pageopacity="0"
     inkscape:pageshadow="2"
     inkscape:window-width="3840"
     inkscape:window-height="2050"
     id="namedview220"
     showgrid="false"
     showguides="false"
     inkscape:lockguides="true"
     inkscape:zoom="1.5131861"
     inkscape:cx="332.8854"
     inkscape:cy="333.07206"
     inkscape:window-x="-12"
     inkscape:window-y="-12"
     inkscape:window-maximized="1"
     inkscape:current-layer="g216" />
  <metadata
     id="metadata2">
Created by potrace 1.12, written by Peter Selinger 2001-2015
<rdf:RDF>
  <cc:Work
     rdf:about="">
    <dc:format>image/svg+xml</dc:format>
    <dc:type
       rdf:resource="http://purl.org/dc/dcmitype/StillImage" />
  </cc:Work>
</rdf:RDF>
</metadata>
  <g
     transform="translate(-0.000000,499.990594) scale(0.100000,-0.100000)"
     fill="#000000"
     stroke="none"
     id="g216">
    <path
       d="M2163 4960 c-35 -22 -63 -45 -63 -50 0 -6 -6 -10 -14 -10 -28 0 -23 -15 10 -32 32 -17 34 -17 51 2 25 26 131 80 158 80 27 0 91 -26 100 -40 3 -5 15 -10 25 -10 10 0 20 -3 22 -7 2 -5 26 -26 53 -48 28 -22 70 -59 95 -82 42 -41 45 -42 68 -27 13 9 27 13 30 9 4 -3 1 -9 -6 -14 -28 -17 -192 -155 -192 -162 0 -4 11 -14 24 -22 22 -15 26 -13 101 49 100 83 130 104 148 104 8 0 35 -20 60 -45 25 -24 57 -47 71 -51 39 -9 89 3 104 26 11 18 10 20 -16 20 -18 0 -40 13 -68 39 -30 30 -50 40 -80 43 l-39 3 48 24 c26 14 47 27 47 30 0 3 -12 14 -26 25 -26 18 -27 18 -64 -3 -41 -23 -54 -26 -45 -12 12 20 -20 62 -64 84 -25 12 -50 26 -54 32 -5 5 -6 -10 -3 -35 3 -31 12 -51 29 -66 27 -23 52 -64 40 -64 -5 0 -37 27 -72 60 -34 33 -79 73 -99 88 -21 15 -41 33 -45 39 -4 7 -17 13 -27 13 -11 0 -20 4 -20 8 0 21 -74 42 -148 42 -73 0 -81 -3 -139 -40z"
       id="path4" />
    <path
       d="M2552 4974 l-43 -26 23 -22 c23 -23 24 -23 55 -5 94 52 168 24 308 -116 100 -100 155 -162 155 -176 0 -5 13 -3 30 6 45 23 47 21 -128 203 -60 61 -113 112 -119 112 -7 0 -18 6 -25 13 -27 25 -71 37 -141 37 -60 0 -79 -5 -115 -26z"
       id="path6" />
    <path
       d="M1799 4906 c-21 -6 -47 -20 -59 -31 l-21 -19 33 -12 c21 -7 37 -8 45 -2 7 5 43 10 80 10 69 -1 108 -15 258 -95 l40 -22 -37 -5 c-34 -5 -63 -24 -96 -64 -7 -9 -27 -16 -44 -16 -30 0 -31 0 -13 -20 10 -11 33 -22 51 -26 39 -7 63 6 115 60 18 20 41 36 50 36 19 0 49 31 49 51 0 9 10 26 23 39 43 46 67 84 67 107 l0 23 -47 -24 c-71 -36 -85 -50 -85 -78 0 -28 -16 -29 -48 -3 -29 24 -146 77 -198 91 -62 16 -112 17 -163 0z"
       id="path8" />
    <path
       d="M3045 4915 c-5 -2 -29 -9 -52 -15 -24 -6 -43 -17 -43 -24 0 -21 44 -46 61 -35 8 5 47 9 86 9 70 0 75 -2 113 -36 33 -30 40 -43 40 -75 0 -21 -4 -41 -10 -44 -14 -9 11 -45 33 -45 32 0 50 96 28 153 -14 37 -71 85 -120 102 -41 14 -111 19 -136 10z"
       id="path10" />
    <path
       d="M2334 4803 c-49 -49 -102 -104 -119 -124 -84 -98 -115 -139 -115 -152 0 -14 50 -43 50 -29 0 4 13 21 28 38 15 18 38 46 52 63 14 17 42 49 63 71 41 44 53 45 124 9 49 -25 93 -24 150 3 43 20 45 22 22 30 -13 5 -31 16 -40 24 -25 22 -107 28 -156 11 l-43 -14 61 56 60 57 -25 23 -24 23 -88 -89z"
       id="path12" />
    <path
       d="M1560 4825 c-25 -7 -56 -16 -70 -20 -39 -11 -88 -34 -95 -45 -3 -6 -15 -10 -25 -10 -10 0 -20 -3 -22 -7 -1 -5 -24 -25 -51 -46 -52 -42 -91 -90 -102 -124 -5 -20 -3 -23 20 -23 18 0 44 18 91 66 36 36 68 64 70 61 3 -2 -8 -18 -23 -35 -15 -16 -40 -44 -54 -61 l-27 -31 48 0 c41 0 52 4 70 28 17 21 21 36 17 69 -5 43 -4 43 47 72 74 42 183 59 275 41 57 -10 71 -17 71 -31 0 -10 -7 -22 -16 -27 -13 -7 -10 -12 18 -25 38 -19 47 -13 55 36 9 55 -2 84 -34 90 -16 3 -53 13 -83 21 -65 19 -119 19 -180 1z"
       id="path14" />
    <path
       d="M3300 4835 c0 -4 7 -19 16 -34 14 -23 27 -29 89 -40 40 -7 90 -23 111 -35 37 -20 39 -25 44 -78 7 -76 28 -98 94 -98 48 0 49 1 29 15 -13 9 -30 31 -39 50 -9 19 -22 35 -29 35 -7 0 -16 7 -19 16 -9 24 -7 25 12 9 9 -9 31 -27 49 -41 46 -36 93 -123 93 -171 0 -37 -3 -41 -40 -58 -71 -32 -93 -60 -98 -124 -3 -42 0 -60 11 -69 13 -11 16 -9 22 10 8 25 63 77 81 78 16 0 24 24 24 71 0 24 4 38 10 34 25 -15 -1 -186 -33 -222 -15 -17 -27 -21 -46 -16 -33 8 -90 44 -116 73 l-20 22 28 23 c15 13 27 31 27 41 0 9 11 29 25 46 31 36 36 71 7 45 -10 -10 -26 -17 -35 -17 -24 0 -47 -41 -49 -85 -1 -35 -2 -36 -15 -19 -22 30 -9 84 29 119 26 24 50 34 106 44 39 7 72 14 72 16 0 2 -5 16 -12 30 -14 30 -42 32 -119 8 -39 -12 -67 -30 -101 -65 -47 -47 -54 -65 -50 -128 2 -56 71 -153 126 -177 17 -8 34 -31 49 -65 26 -58 49 -74 120 -83 33 -4 37 -3 20 4 -13 6 -23 17 -23 26 0 8 -15 29 -32 45 l-33 29 28 1 c94 1 148 228 97 405 -11 38 -20 70 -20 71 0 0 -9 11 -20 24 -11 13 -20 28 -20 34 -1 6 -19 25 -40 41 -22 17 -51 39 -65 50 -36 29 -122 71 -181 89 -61 18 -164 32 -164 21z"
       id="path16" />
    <path
       d="M1963 4776 c-61 -70 -113 -135 -113 -144 0 -4 -11 -19 -25 -32 -14 -13 -25 -29 -25 -37 0 -7 -4 -13 -8 -13 -17 0 -42 -61 -42 -104 0 -25 3 -46 8 -46 6 0 54 66 87 119 20 32 129 174 164 213 43 48 45 59 9 69 -22 6 -31 2 -55 -25z"
       id="path18" />
    <path
       d="M3160 4803 c-29 -11 -50 -36 -50 -60 0 -29 43 -93 98 -146 l39 -38 6 38 c5 25 3 41 -6 48 -21 16 -67 81 -67 93 0 7 11 12 25 12 29 0 31 7 9 38 -15 22 -26 25 -54 15z"
       id="path20" />
    <path
       d="M1660 4730 c0 -35 28 -78 67 -105 47 -31 73 -31 96 0 14 20 15 25 4 25 -39 0 -97 48 -97 79 0 17 -6 21 -35 21 -29 0 -35 -4 -35 -20z"
       id="path22" />
    <path
       d="M2316 4672 l-19 -25 34 -30 c104 -90 197 -180 247 -240 l56 -68 18 23 c9 13 20 20 23 16 4 -4 -10 -24 -30 -45 -21 -21 -58 -63 -84 -93 -25 -30 -49 -56 -53 -58 -14 -6 -8 -29 12 -47 12 -11 24 -15 29 -9 4 5 25 30 46 57 21 26 39 46 41 44 2 -2 -5 -21 -16 -42 -11 -22 -20 -58 -20 -82 0 -35 6 -49 37 -83 20 -22 42 -40 48 -40 18 0 57 -71 51 -94 -4 -16 1 -14 24 13 33 38 43 81 31 131 -9 39 -49 107 -75 129 -22 19 -46 65 -46 89 0 19 47 82 61 82 4 0 20 12 36 28 15 15 45 41 65 58 l38 30 -31 37 c-53 64 -113 81 -201 56 -91 -25 -8 -84 86 -60 93 23 97 13 20 -54 l-57 -49 -41 50 c-50 61 -172 183 -251 250 l-60 52 -19 -26z"
       id="path24" />
    <path
       d="M1530 4684 c-92 -35 -108 -59 -84 -126 19 -56 48 -77 102 -78 44 0 152 43 152 61 0 5 6 9 13 9 8 0 22 9 31 19 16 18 16 20 -11 33 -31 15 -38 13 -106 -35 -32 -23 -105 -27 -118 -7 -16 26 -5 43 36 57 35 12 43 12 71 -3 24 -13 35 -14 52 -5 28 15 28 22 -5 51 -27 23 -100 36 -133 24z"
       id="path26" />
    <path
       d="M3323 4665 c-40 -32 -63 -76 -70 -136 -5 -39 -2 -49 21 -74 14 -15 26 -35 26 -44 -1 -15 -27 14 -55 60 -27 45 -66 99 -70 99 -3 0 -15 -6 -28 -12 -12 -7 -23 -14 -25 -14 -2 -1 12 -23 30 -49 18 -26 38 -54 43 -63 42 -68 86 -132 95 -137 5 -3 10 -15 10 -26 0 -10 4 -19 8 -19 5 0 19 -19 32 -42 12 -24 30 -51 38 -61 8 -9 20 -27 26 -38 6 -12 33 -29 59 -39 l48 -18 -7 21 c-4 12 -10 24 -14 27 -4 3 -20 25 -35 50 -16 24 -34 51 -42 58 -18 18 -17 32 6 83 21 46 19 92 -5 120 -8 8 -14 20 -14 25 0 5 -11 14 -25 20 -23 11 -24 10 -23 -20 1 -17 1 -49 0 -71 l-3 -40 -24 28 c-23 26 -34 54 -17 44 4 -3 5 17 4 43 -4 55 20 151 43 170 28 23 125 8 125 -19 0 -5 -8 -19 -18 -30 -15 -20 -21 -21 -62 -12 -48 11 -54 8 -64 -25 -5 -17 0 -23 33 -32 80 -25 121 -11 160 52 29 47 27 81 -6 103 -75 51 -149 58 -200 18z"
       id="path28" />
    <path
       d="M2733 4661 l-21 -18 35 -44 c19 -24 39 -45 44 -47 5 -2 9 -9 9 -15 0 -6 9 -20 20 -32 34 -34 70 -82 70 -93 0 -5 -7 -12 -14 -15 -8 -3 -27 -32 -41 -63 -24 -53 -25 -61 -14 -104 11 -45 70 -140 87 -140 4 0 8 24 9 52 1 29 3 71 4 93 1 22 -6 61 -16 87 -9 26 -14 56 -10 65 5 16 8 14 23 -10 9 -15 20 -27 24 -27 5 0 8 -6 8 -13 0 -8 11 -27 25 -43 32 -37 31 -55 -2 -88 -21 -22 -27 -37 -29 -84 -1 -31 -6 -67 -9 -79 -10 -33 1 -28 46 18 46 48 56 79 42 131 -10 39 -10 39 8 19 11 -11 19 -23 19 -27 0 -4 12 -26 27 -50 24 -37 31 -42 53 -37 14 3 27 7 29 9 6 5 -42 94 -51 94 -4 0 -8 9 -8 19 0 11 -5 23 -10 26 -12 7 -81 111 -92 138 -14 34 13 16 46 -31 41 -56 103 -94 157 -96 51 -1 56 8 25 44 -14 17 -26 37 -26 43 0 18 -46 64 -82 83 -30 15 -86 15 -133 0 -17 -6 -28 4 -64 56 -25 35 -50 67 -58 71 -7 4 -13 13 -13 19 0 6 -10 21 -22 33 -13 12 -32 34 -43 48 -24 31 -24 31 -52 8z"
       id="path30" />
    <path
       d="M3065 4609 c-38 -21 -89 -48 -112 -60 -24 -11 -43 -24 -43 -28 0 -4 9 -15 21 -24 20 -18 22 -18 62 3 23 12 74 38 114 58 l72 37 -22 26 -22 26 -70 -38z"
       id="path32" />
    <path
       d="M1906 4584 c-12 -30 -6 -40 41 -64 26 -14 70 -41 98 -60 63 -44 58 -40 134 -102 40 -33 66 -48 69 -40 2 7 10 19 18 26 12 12 5 22 -48 66 l-63 53 45 -9 c76 -15 136 -11 159 10 12 11 21 23 21 27 0 9 -89 29 -129 29 -28 0 -91 -26 -102 -42 -3 -4 -31 10 -63 32 -31 22 -59 40 -62 40 -2 0 -22 11 -44 25 -46 29 -65 31 -74 9z"
       id="path34" />
    <path
       d="M1180 4534 c-83 -13 -180 -41 -212 -61 -21 -13 -41 -23 -46 -23 -26 0 -164 -162 -149 -176 12 -12 71 21 113 63 27 26 78 63 114 80 138 67 340 67 416 1 31 -27 34 -35 34 -84 0 -30 -4 -54 -10 -54 -5 0 -10 16 -10 35 0 38 -25 85 -45 85 -6 0 -22 9 -35 20 -13 11 -24 20 -26 20 -6 0 9 -34 28 -65 10 -16 21 -37 24 -45 4 -8 16 -25 27 -37 17 -19 18 -26 8 -51 -12 -29 -67 -63 -123 -77 -24 -6 -29 -3 -49 42 -16 34 -24 70 -25 123 -1 41 0 64 2 50 10 -50 25 -75 61 -100 20 -14 44 -37 53 -53 l18 -28 6 34 c7 38 -2 117 -13 117 -4 0 -16 8 -27 18 -10 10 -37 27 -59 38 -22 11 -39 25 -37 32 1 8 -11 12 -33 12 l-35 0 0 -102 c0 -89 4 -110 26 -158 33 -71 51 -90 85 -90 l29 0 -30 -29 c-17 -15 -30 -33 -30 -39 0 -6 -10 -18 -22 -26 -21 -15 -21 -16 -3 -16 69 0 145 54 145 103 0 15 11 29 36 42 57 30 103 85 121 143 33 105 -18 194 -131 231 -63 21 -153 32 -196 25z"
       id="path36" />
    <path
       d="M1700 4515 c-7 -8 -18 -15 -25 -15 -8 0 -14 -36 -19 -121 -6 -106 -23 -214 -42 -263 -5 -13 1 -16 29 -16 27 0 37 5 42 20 5 16 15 20 51 20 37 0 51 6 78 33 18 17 35 42 39 55 l5 23 -35 -21 c-19 -11 -38 -18 -43 -15 -5 3 -25 -1 -45 -9 -42 -18 -42 -20 -20 99 16 90 20 211 6 219 -5 3 -14 -1 -21 -9z"
       id="path38" />
    <path
       d="M3820 4525 c0 -11 26 -61 35 -67 5 -4 20 -8 33 -8 42 0 149 -60 201 -112 56 -56 73 -100 74 -183 0 -69 -12 -115 -29 -115 -22 0 -82 -43 -88 -63 -2 -9 -18 -23 -35 -30 -38 -16 -30 -27 19 -27 38 0 74 24 85 59 3 10 12 22 20 25 12 4 11 -5 -5 -46 -11 -29 -18 -53 -17 -55 2 -1 17 -6 34 -9 35 -7 33 -12 67 138 35 150 10 259 -79 352 -61 63 -127 100 -229 127 -76 20 -86 22 -86 14z"
       id="path40" />
    <path
       d="M2388 4461 c-21 -22 -38 -44 -38 -50 0 -6 -4 -11 -9 -11 -12 0 -141 -163 -141 -178 0 -5 -7 -15 -15 -22 -8 -7 -36 -53 -61 -104 -26 -50 -53 -100 -60 -111 -8 -11 -14 -26 -14 -35 0 -18 -46 -107 -67 -132 -33 -37 -166 -51 -269 -28 -50 11 -65 19 -79 42 -15 26 -15 33 -1 82 22 74 21 86 -8 86 -32 0 -41 -14 -63 -94 -22 -83 -35 -90 -145 -81 -42 4 -120 4 -172 0 l-96 -7 0 -36 0 -35 52 6 52 7 -34 -18 c-21 -10 -43 -34 -57 -61 -31 -59 -51 -81 -77 -82 -13 0 -4 -7 23 -16 41 -15 45 -14 88 7 49 24 62 47 68 119 l3 46 134 -2 c139 -3 155 -6 358 -78 36 -13 79 -26 95 -30 36 -7 145 -57 145 -66 0 -3 19 -26 43 -51 99 -106 113 -130 116 -200 l1 -28 -101 53 c-59 30 -105 60 -109 72 -27 66 -107 106 -268 135 -118 21 -178 58 -239 151 -21 33 -31 39 -59 39 -29 0 -34 -4 -34 -23 0 -19 21 -61 39 -77 19 -16 54 -90 47 -97 -2 -3 -39 1 -82 7 -95 15 -270 -2 -349 -33 -27 -11 -76 -26 -108 -33 -61 -15 -147 -59 -147 -75 0 -5 -11 -14 -25 -19 -14 -5 -25 -14 -25 -19 0 -5 -21 -22 -46 -38 -26 -15 -57 -35 -69 -43 -12 -8 -49 -33 -81 -55 -32 -22 -66 -43 -76 -47 -9 -4 -25 -14 -35 -22 -10 -8 -34 -26 -53 -39 -40 -26 -47 -44 -26 -72 14 -20 15 -20 38 1 21 19 100 72 123 84 6 3 36 23 69 45 32 22 66 45 75 50 66 42 131 89 131 96 0 5 5 9 11 9 6 0 24 11 41 25 40 34 58 32 26 -2 -38 -42 -48 -66 -52 -133 -2 -39 -10 -67 -21 -80 -16 -18 -16 -19 7 -12 14 4 38 18 54 32 54 48 76 89 88 169 l12 76 44 12 c25 6 61 12 81 12 l37 1 -39 -39 c-30 -30 -39 -46 -39 -72 0 -19 4 -40 9 -48 10 -16 28 7 57 74 9 22 21 49 26 61 11 23 95 44 136 34 21 -5 21 -6 -12 -32 -19 -16 -39 -28 -44 -28 -5 0 -24 -16 -41 -37 -25 -29 -31 -45 -31 -82 l0 -45 33 32 c18 18 39 32 46 32 44 0 98 76 88 126 -5 26 -4 26 37 20 22 -3 75 -17 116 -30 l75 -25 -63 6 c-55 5 -65 3 -82 -15 -29 -31 -25 -35 28 -30 26 3 41 3 35 1 -7 -3 -13 -14 -13 -26 0 -12 -7 -34 -14 -49 -21 -40 -4 -34 48 17 26 25 51 45 56 45 6 0 10 9 10 20 0 34 22 33 131 -3 119 -40 158 -56 178 -75 7 -7 30 -21 51 -32 21 -11 40 -29 44 -42 3 -13 16 -35 28 -50 13 -14 31 -36 40 -47 10 -12 21 -40 24 -63 9 -57 35 -84 89 -92 24 -4 54 -16 67 -27 12 -12 28 -24 33 -27 16 -11 60 -74 78 -114 24 -51 23 -202 -2 -288 -19 -69 -87 -200 -102 -200 -5 0 -9 -6 -9 -14 0 -7 -7 -20 -16 -27 -19 -16 -54 -92 -54 -118 0 -20 -27 -74 -58 -118 -12 -17 -22 -38 -22 -46 0 -26 -46 -53 -110 -67 -50 -11 -64 -18 -75 -40 -8 -15 -36 -47 -63 -71 -39 -35 -68 -50 -138 -71 -49 -16 -108 -28 -129 -28 -22 0 -96 -9 -165 -21 -69 -11 -158 -24 -197 -28 -85 -10 -145 -39 -188 -89 -83 -97 -108 -112 -191 -112 l-54 0 -75 77 c-74 77 -86 81 -98 38 -9 -29 144 -187 197 -205 65 -21 115 -9 202 51 44 30 81 57 84 60 3 4 29 21 57 38 44 27 68 34 145 41 120 12 265 12 272 1 8 -12 -45 -83 -77 -104 -15 -9 -42 -41 -62 -69 -47 -71 -48 -133 -5 -217 27 -51 37 -61 82 -80 28 -11 55 -21 60 -21 9 0 -46 86 -59 92 -15 6 -53 95 -53 123 0 21 12 40 47 72 52 49 55 50 179 112 82 41 129 62 227 104 20 9 37 21 37 27 0 5 6 10 13 10 6 0 35 12 62 25 37 18 67 25 111 25 78 0 94 -14 70 -65 -9 -19 -21 -35 -26 -35 -6 0 -10 -5 -10 -11 0 -16 -92 -109 -107 -109 -7 0 -13 -4 -13 -8 0 -14 -77 -43 -193 -72 -62 -16 -125 -33 -142 -38 -16 -6 -74 -18 -128 -27 -54 -10 -100 -21 -102 -26 -3 -4 -1 -19 5 -33 8 -23 15 -25 81 -28 l72 -3 19 -60 c21 -71 30 -103 54 -207 9 -43 20 -78 23 -78 4 0 12 -12 19 -27 7 -16 24 -46 38 -68 20 -31 24 -34 20 -15 -3 14 -9 50 -12 80 -3 30 -15 84 -25 120 -11 36 -24 90 -30 120 -5 30 -13 67 -16 83 -11 55 46 88 156 90 132 1 212 -52 282 -190 16 -31 29 -63 29 -70 0 -7 11 -31 25 -53 14 -22 25 -44 25 -49 0 -9 56 -96 79 -122 6 -8 18 -23 26 -34 14 -20 14 -20 36 2 22 21 22 22 4 50 -10 15 -25 34 -32 41 -7 7 -13 20 -13 28 0 8 -4 14 -8 14 -11 0 -92 155 -92 175 0 8 -9 30 -21 49 -30 51 -36 136 -14 186 10 22 22 40 27 40 4 0 8 5 8 11 0 20 163 198 239 262 18 15 43 27 55 27 13 0 34 -12 47 -27 13 -16 60 -68 103 -118 44 -49 107 -118 140 -151 110 -111 126 -170 82 -302 -15 -45 -36 -92 -47 -106 -10 -13 -19 -27 -19 -31 0 -11 -72 -109 -87 -118 -7 -4 -13 -13 -13 -19 0 -6 -10 -20 -21 -32 -12 -12 -46 -48 -75 -81 l-53 -60 21 -22 21 -22 28 22 c15 12 28 28 28 34 1 7 12 20 26 29 14 9 25 22 25 29 0 7 11 20 25 29 14 9 25 23 25 31 0 8 4 15 9 15 7 0 59 72 98 135 26 42 90 181 97 210 14 55 58 133 84 146 36 20 350 18 363 -2 11 -16 3 -101 -13 -142 -13 -34 -10 -38 27 -29 25 7 32 17 48 73 10 35 23 69 28 74 6 6 64 10 132 10 120 1 224 11 244 23 5 4 13 18 16 32 l6 25 -122 -8 c-136 -10 -247 1 -325 31 -75 30 -144 54 -187 65 -22 5 -69 21 -105 33 -36 13 -71 24 -78 24 -15 0 -99 61 -128 92 -11 13 -30 39 -42 60 -12 20 -29 39 -37 42 -11 4 -15 20 -15 56 0 45 2 50 22 50 12 0 47 -22 79 -50 32 -27 64 -50 72 -50 8 0 20 -6 26 -14 7 -8 35 -20 64 -26 65 -15 113 -29 152 -45 17 -7 46 -20 65 -28 97 -40 214 -102 237 -125 14 -14 32 -45 40 -69 14 -39 18 -43 49 -43 19 0 34 2 34 5 0 21 -47 125 -66 146 -13 14 -24 30 -24 36 0 6 -6 14 -12 17 -18 8 296 -3 416 -15 131 -12 226 -11 311 5 73 13 160 53 190 86 10 11 24 20 31 20 7 0 14 4 16 8 2 5 26 24 53 44 50 35 63 60 46 87 -8 12 -24 5 -88 -38 -43 -30 -89 -64 -103 -76 -14 -12 -47 -33 -75 -46 -45 -21 -66 -24 -210 -27 -165 -4 -479 19 -545 40 -96 30 -190 64 -238 85 -29 12 -57 23 -62 23 -4 0 -21 10 -37 23 -15 12 -54 35 -85 51 -55 27 -108 80 -108 108 0 7 -21 22 -48 32 -41 17 -97 61 -150 119 -9 9 -30 17 -47 17 -16 0 -35 4 -40 8 -15 10 -35 74 -35 108 1 44 25 136 48 180 11 21 37 73 57 114 20 41 47 93 60 115 52 88 55 98 49 134 -4 20 -13 45 -20 56 -11 17 -10 29 7 79 27 82 25 121 -7 151 -30 28 -42 91 -22 117 7 10 64 36 127 58 70 24 119 47 128 60 8 11 19 20 24 20 6 0 25 10 42 23 83 61 228 99 226 60 -1 -35 -16 -56 -54 -77 -21 -12 -46 -37 -56 -56 -10 -18 -24 -37 -31 -42 -8 -4 4 -8 30 -8 48 0 83 27 106 82 13 30 14 30 21 9 9 -29 48 -67 93 -90 46 -23 142 -38 142 -22 0 7 -8 14 -17 18 -22 7 -62 53 -63 70 0 19 -69 83 -88 83 -9 0 -31 12 -47 28 l-30 27 55 6 c30 3 80 13 110 21 30 9 76 18 101 22 42 5 47 3 58 -20 12 -27 65 -54 103 -54 27 1 82 29 57 30 -9 0 -22 7 -29 15 -7 9 -29 15 -55 15 -24 0 -48 6 -54 14 -10 12 -2 15 46 19 32 3 75 9 95 12 31 6 39 4 50 -14 7 -12 18 -21 24 -21 12 0 34 -42 34 -66 0 -8 12 -20 28 -26 37 -16 82 -58 82 -78 0 -31 14 -30 27 1 20 48 16 84 -14 121 -38 45 -42 48 -89 48 -22 0 -49 6 -59 14 -17 13 -16 14 23 21 64 10 143 -10 190 -50 22 -19 45 -35 51 -35 6 0 11 -4 11 -8 0 -5 18 -18 40 -31 22 -12 45 -28 52 -35 7 -7 28 -20 47 -29 32 -16 35 -16 47 1 18 24 17 41 -3 50 -10 4 -44 25 -77 47 -32 22 -67 45 -78 51 -10 6 -29 20 -41 31 -79 73 -193 103 -385 103 -117 0 -165 -5 -292 -31 -25 -5 -63 -12 -84 -16 l-39 -6 7 34 c3 19 11 35 16 37 19 7 85 107 103 157 37 98 41 123 28 178 -14 65 -45 103 -90 112 -35 7 -35 7 -20 -16 8 -13 20 -37 27 -54 l13 -30 -23 27 c-13 14 -43 39 -68 54 -25 15 -48 32 -52 38 -6 8 -8 7 -8 -1 0 -6 5 -15 10 -18 6 -3 10 -15 10 -25 0 -34 42 -70 90 -78 42 -7 45 -10 48 -40 2 -17 -5 -59 -15 -93 -24 -83 -57 -112 -213 -192 -47 -24 -95 -49 -105 -55 -59 -31 -147 -62 -177 -62 -19 0 -62 -11 -96 -25 -62 -25 -122 -33 -122 -16 0 5 10 18 23 28 13 10 26 26 30 36 4 11 16 21 27 24 11 3 20 14 20 24 0 12 10 23 25 29 14 5 25 14 25 19 0 26 235 129 297 131 12 0 43 9 70 21 26 12 80 31 118 44 65 21 70 25 73 54 3 31 3 31 -47 31 -62 0 -81 21 -99 111 -7 35 -20 87 -27 114 -8 28 -20 73 -26 100 -6 28 -19 59 -29 70 -9 11 -29 40 -43 65 -15 25 -27 41 -27 35 1 -12 18 -91 27 -119 5 -17 1 -16 -26 7 -21 17 -44 27 -65 27 -20 0 -40 8 -51 20 -32 35 -36 22 -9 -29 28 -55 61 -72 124 -68 32 2 35 0 38 -28 2 -16 14 -66 28 -111 13 -44 24 -103 24 -132 0 -46 -3 -53 -28 -66 -50 -26 -97 -29 -180 -11 -62 14 -86 24 -110 49 -50 49 -82 88 -82 98 0 5 -8 17 -18 28 -10 10 -35 54 -57 97 -46 90 -105 186 -117 191 -4 2 -8 10 -8 18 0 19 -14 18 -33 -4 -23 -25 -21 -43 8 -71 14 -13 25 -29 25 -36 0 -7 8 -23 19 -36 66 -85 98 -256 67 -362 -18 -61 -30 -71 -42 -34 -9 28 -50 78 -58 70 -18 -19 21 -133 46 -133 8 0 -5 -17 -48 -63 -11 -12 -42 -49 -69 -82 -56 -70 -103 -115 -121 -115 -7 0 -26 11 -42 25 -17 14 -34 25 -39 25 -5 0 -47 41 -93 91 -47 50 -104 110 -127 135 -24 24 -43 46 -43 48 0 3 -11 22 -25 42 -22 33 -25 47 -25 136 0 92 2 104 35 172 19 40 41 79 50 86 8 7 15 17 15 22 0 20 83 118 100 118 10 0 27 -11 38 -24 10 -14 35 -33 56 -42 33 -16 39 -16 69 -2 39 19 97 66 97 79 0 6 -4 8 -9 5 -5 -3 -35 3 -66 14 -74 26 -119 25 -156 -1 -47 -33 -33 -8 34 62 62 65 63 67 46 88 -9 11 -21 21 -26 21 -4 -1 -25 -18 -45 -39z"
       id="path42" />
    <path
       d="M1587 4432 c-32 -32 -37 -44 -37 -82 1 -25 7 -56 15 -70 8 -14 14 -30 15 -36 0 -5 -29 -54 -64 -107 -35 -53 -67 -103 -70 -109 -3 -7 -22 -33 -41 -58 -19 -25 -44 -62 -55 -82 l-20 -38 79 0 c78 0 79 0 105 34 26 35 34 66 17 66 -6 0 -26 -9 -45 -21 -40 -23 -47 -14 -15 22 11 13 30 40 41 61 12 21 25 38 30 38 4 0 8 6 8 14 0 8 6 21 14 28 47 48 89 232 66 293 -5 14 -5 37 0 54 11 41 2 39 -43 -7z"
       id="path44" />
    <path
       d="M1083 4431 c-62 -29 -83 -54 -83 -101 0 -33 7 -47 40 -82 42 -45 47 -67 7 -28 -69 66 -224 65 -349 -2 -45 -24 -178 -152 -200 -192 -7 -13 -33 -62 -58 -110 -50 -97 -49 -101 27 -122 36 -10 41 -13 20 -13 -15 -1 -39 -9 -53 -18 -21 -13 -32 -15 -55 -6 -29 11 -35 8 -21 -13 29 -43 113 -40 159 6 21 22 38 30 68 30 22 1 83 6 135 13 l95 12 -10 31 c-6 17 -15 29 -23 27 -6 -3 -32 17 -57 44 -44 46 -47 48 -100 47 -47 0 -60 -4 -83 -27 l-27 -27 42 0 c24 0 60 -9 83 -21 25 -13 49 -19 64 -15 14 3 28 2 31 -4 4 -6 -39 -10 -124 -10 l-130 0 15 38 c9 20 25 52 37 69 20 30 27 33 72 34 73 1 87 10 106 64 18 52 15 93 -4 59 -13 -23 -32 -39 -74 -59 -17 -8 -35 -24 -38 -35 -4 -11 -13 -20 -21 -20 -19 0 44 79 95 119 92 72 144 88 262 83 75 -4 132 -78 153 -197 6 -37 5 -39 -9 -21 -8 11 -15 24 -15 29 0 5 -7 24 -16 43 -16 34 -61 61 -127 78 -15 3 -36 15 -47 26 -20 20 -20 20 -20 -2 0 -25 49 -105 84 -135 30 -26 129 -73 154 -73 9 0 28 3 41 7 22 6 23 9 18 63 -2 31 -14 75 -26 98 -12 23 -21 59 -21 80 0 22 -7 57 -16 77 -19 46 -13 90 21 139 13 20 23 36 22 36 -1 0 -21 -9 -44 -19z"
       id="path46" />
    <path
       d="M1852 4428 c-51 -28 -140 -153 -115 -162 48 -19 134 20 188 84 38 46 63 66 72 57 6 -7 -27 -57 -38 -57 -5 0 -9 -6 -9 -13 0 -8 -9 -25 -21 -38 -12 -13 -30 -40 -40 -59 -11 -19 -29 -51 -41 -70 -45 -73 -91 -167 -104 -211 -12 -40 -12 -50 2 -77 12 -25 23 -32 58 -37 88 -14 171 36 183 110 7 44 -15 80 -63 100 -35 14 -38 14 -56 -7 -23 -27 -19 -42 15 -46 40 -5 52 -26 30 -56 -35 -48 -113 -65 -113 -25 0 29 83 195 127 255 l22 29 -2 -47 c-1 -51 17 -85 66 -122 27 -20 50 -15 29 6 -7 7 -12 32 -12 57 0 45 -9 68 -42 121 -16 24 -15 27 30 97 26 40 50 72 55 73 12 0 8 -39 -8 -70 -19 -36 -17 -230 1 -223 24 9 74 83 83 121 9 43 2 103 -16 137 -6 11 -30 37 -52 58 -35 32 -45 37 -57 26 -11 -9 -23 -9 -53 0 -54 16 -72 14 -119 -11z"
       id="path48" />
    <path
       d="M3850 4436 c0 -3 12 -17 26 -33 24 -25 25 -33 20 -93 -3 -36 -7 -84 -9 -108 -1 -24 -7 -46 -14 -50 -19 -12 -43 -131 -43 -215 0 -102 6 -125 34 -130 11 -2 -29 -5 -90 -6 l-112 -1 -4 -30 c-4 -28 -2 -30 26 -30 53 -1 66 -19 66 -90 0 -57 3 -64 32 -92 46 -43 68 -49 119 -33 37 11 41 14 24 20 -32 12 -75 57 -75 78 0 21 -46 67 -67 67 -13 0 -38 39 -30 47 3 2 57 -1 120 -8 l115 -13 25 30 26 29 -72 10 -72 10 5 55 c4 36 7 46 10 30 4 -19 12 -26 35 -28 17 -2 64 -12 105 -23 78 -20 283 -48 358 -49 29 0 42 -4 42 -14 0 -19 67 -57 102 -58 17 -1 39 8 53 22 32 30 32 43 1 28 -20 -8 -32 -7 -62 7 -20 9 -47 15 -60 12 -13 -2 -21 -1 -19 3 3 4 22 11 42 15 21 4 46 14 55 22 16 14 16 18 3 44 -8 15 -15 32 -15 37 0 12 -64 119 -85 142 -8 9 -15 20 -15 25 0 15 -127 129 -171 154 -35 19 -41 20 -36 6 4 -9 7 -30 7 -46 0 -18 5 -29 14 -29 16 0 129 -108 139 -132 9 -26 -7 -22 -41 10 -16 15 -45 38 -65 52 -20 14 -38 32 -40 40 -3 8 -5 -2 -6 -23 -2 -78 44 -116 137 -115 23 0 44 -1 46 -3 8 -11 66 -119 66 -124 0 -3 -60 -4 -132 -4 -84 1 -116 4 -88 8 25 4 56 14 70 24 13 9 41 17 62 17 50 0 51 25 3 46 -67 28 -120 12 -171 -50 l-29 -36 -95 20 c-52 11 -120 26 -150 32 -30 7 -61 12 -67 11 -19 -1 -15 17 5 23 48 16 130 62 154 87 29 30 55 76 68 120 10 33 7 34 -23 3 -13 -13 -42 -27 -65 -31 -23 -4 -42 -11 -42 -16 0 -5 -8 -9 -19 -9 -17 0 -61 -54 -74 -90 -3 -8 -6 0 -6 19 -1 45 36 118 76 148 26 20 44 24 102 25 39 1 71 5 71 9 0 5 -5 20 -12 34 -9 21 -18 25 -51 25 -55 0 -116 -19 -157 -49 l-35 -25 37 42 c21 23 40 53 44 68 10 40 -19 90 -65 114 -39 19 -61 25 -61 16z"
       id="path50" />
    <path
       d="M2322 4257 c-12 -13 -20 -26 -17 -28 7 -8 -15 -79 -25 -79 -18 0 -108 -182 -110 -223 0 -5 22 10 48 32 27 23 52 41 58 41 22 1 73 114 67 150 0 3 -3 18 -7 34 l-7 28 35 -37 c20 -21 36 -41 36 -45 0 -3 11 -17 25 -30 14 -13 25 -29 25 -37 0 -7 4 -13 9 -13 10 0 78 -100 101 -150 4 -8 -3 -34 -17 -59 -12 -24 -23 -56 -23 -70 0 -24 2 -24 26 14 14 22 22 31 18 20 -16 -45 -16 -141 0 -179 9 -21 16 -60 16 -87 0 -27 3 -49 8 -49 10 0 57 60 81 106 29 53 29 170 1 233 -11 24 -20 47 -20 53 0 5 -10 24 -23 41 -12 18 -27 39 -32 49 -22 36 -100 145 -127 178 -78 93 -112 130 -118 130 -3 0 -16 -10 -28 -23z"
       id="path52" />
    <path
       d="M778 4168 c-25 -9 -28 -14 -28 -58 0 -27 11 -84 24 -127 13 -43 27 -89 30 -103 3 -14 14 -39 25 -56 15 -26 24 -31 45 -27 30 6 32 18 9 64 -20 40 -54 161 -43 154 4 -3 13 -18 20 -34 16 -39 64 -62 110 -52 34 8 34 8 10 15 -14 4 -38 25 -55 47 -19 24 -43 42 -67 49 -36 10 -37 12 -43 68 -4 31 -7 60 -8 63 -1 3 -14 2 -29 -3z"
       id="path54" />
    <path
       d="M1610 4078 c-38 -8 -49 -15 -67 -48 l-21 -39 32 5 c17 4 47 10 66 15 19 5 56 9 81 9 47 0 46 -1 77 63 5 10 -113 7 -168 -5z"
       id="path56" />
    <path
       d="M3150 4083 c-14 -2 -50 -13 -82 -24 -64 -24 -84 -53 -73 -112 11 -55 59 -95 125 -102 63 -7 97 6 119 47 13 22 13 32 1 67 -12 39 -15 41 -52 41 -22 0 -38 -3 -36 -7 2 -5 10 -20 17 -35 29 -58 -25 -79 -86 -32 -70 53 -30 82 130 91 89 6 92 7 81 51 -6 20 -12 22 -63 21 -31 -1 -67 -4 -81 -6z"
       id="path58" />
    <path
       d="M3398 4035 c3 -25 9 -35 21 -35 10 0 46 -11 81 -25 35 -14 72 -25 82 -25 10 0 44 -9 76 -21 31 -11 79 -24 105 -28 l48 -8 -3 30 c-3 28 -7 31 -88 54 -47 13 -112 33 -145 44 -50 16 -170 49 -178 49 -2 0 -1 -16 1 -35z"
       id="path60" />
    <path
       d="M2406 4025 c-16 -14 -41 -25 -56 -25 -36 0 -89 -27 -118 -59 -53 -62 -54 -157 -2 -211 l31 -32 -7 36 c-5 29 -1 44 17 74 23 36 41 70 73 143 9 20 25 39 36 42 17 4 18 3 8 -16 -6 -12 -14 -24 -19 -27 -8 -6 -36 -77 -49 -130 -14 -52 -12 -122 5 -150 8 -14 17 -32 21 -40 7 -16 36 -49 68 -78 10 -9 26 -25 35 -34 8 -10 21 -18 28 -18 8 0 19 -11 25 -25 19 -42 37 -31 32 19 -8 89 -42 172 -82 205 -78 65 -82 71 -82 107 0 46 16 35 25 -16 4 -22 12 -40 19 -40 7 0 28 -14 47 -31 l34 -30 3 52 c4 69 0 76 -53 99 -25 11 -45 24 -45 29 0 6 16 35 35 65 38 60 41 72 21 99 -17 22 -15 22 -50 -8z"
       id="path62" />
    <path
       d="M1375 4013 c-27 -8 -84 -25 -126 -39 -42 -13 -85 -24 -95 -24 -11 0 -55 -11 -99 -25 -44 -14 -92 -25 -107 -25 -44 0 -55 -9 -50 -36 2 -14 10 -28 16 -30 6 -2 49 4 96 15 235 52 370 97 385 128 6 11 17 28 24 37 7 9 12 16 10 15 -2 0 -26 -7 -54 -16z"
       id="path64" />
    <path
       d="M1105 3853 c-15 -3 -25 -20 -38 -63 -9 -32 -17 -65 -17 -73 0 -27 -21 -37 -50 -22 -17 9 -41 12 -62 9 -28 -5 -37 -12 -47 -40 -10 -27 -9 -38 3 -62 8 -16 22 -34 30 -41 9 -8 16 -21 17 -30 0 -10 4 -8 10 7 13 34 0 101 -22 113 -11 5 -19 14 -19 19 0 5 23 -7 51 -26 28 -19 61 -34 73 -34 22 0 66 40 66 60 0 5 11 43 25 84 36 106 35 110 -20 99z"
       id="path66" />
    <path
       d="M835 3773 c-261 -50 -438 -91 -485 -114 -8 -4 -27 -10 -42 -13 -48 -11 -78 -48 -78 -98 0 -54 3 -58 38 -49 21 6 27 14 27 37 0 23 7 32 35 46 45 22 199 68 227 68 12 0 64 11 115 25 119 32 126 31 89 -6 -26 -26 -31 -38 -31 -80 0 -31 -8 -66 -21 -91 -19 -38 -20 -40 -2 -34 48 18 93 42 93 49 0 5 9 21 21 35 17 23 19 35 14 88 -8 71 -17 64 113 88 99 19 102 20 102 52 0 22 -4 24 -42 23 -24 -1 -101 -12 -173 -26z"
       id="path68" />
    <path
       d="M4057 3793 c-4 -3 -7 -12 -7 -19 0 -26 -95 -105 -102 -84 -2 5 -22 12 -45 16 l-42 6 25 -51 c19 -38 31 -51 48 -51 28 0 97 36 118 63 30 38 20 -2 -13 -49 -23 -34 -29 -53 -27 -81 3 -42 23 -55 33 -21 4 12 19 31 33 42 23 18 24 24 19 85 -4 58 -2 71 20 108 l25 43 -39 0 c-22 0 -43 -3 -46 -7z"
       id="path70" />
    <path
       d="M4119 3731 c-20 -25 -20 -25 0 -33 18 -6 21 -16 21 -73 0 -102 36 -153 124 -174 27 -7 51 -9 54 -6 3 3 0 5 -6 5 -7 0 -12 9 -12 19 0 11 -4 22 -9 25 -5 4 -17 40 -27 81 -10 41 -22 75 -27 75 -5 0 -20 9 -34 20 -32 25 -21 25 91 0 50 -11 101 -20 115 -20 32 0 191 -45 249 -71 23 -10 42 -25 42 -32 0 -8 -11 -36 -25 -63 -14 -27 -25 -54 -25 -60 0 -6 -9 -19 -20 -29 -27 -24 -25 -34 6 -45 34 -13 43 -6 82 70 26 49 32 72 32 123 0 63 0 63 -37 83 -77 41 -356 109 -506 123 -65 7 -70 6 -88 -18z"
       id="path72" />
    <path
       d="M470 3551 c-53 -7 -194 -58 -222 -79 -84 -66 -99 -87 -104 -142 -6 -67 4 -87 35 -71 16 9 21 21 21 49 0 40 17 61 86 109 73 51 314 109 299 72 -7 -17 -83 -75 -133 -101 -53 -28 -55 -32 -34 -58 l18 -22 54 28 c30 16 62 35 71 44 68 62 87 82 106 118 18 32 20 41 9 45 -27 11 -152 15 -206 8z"
       id="path74" />
    <path
       d="M4352 3553 c-24 -2 -45 -10 -48 -18 -7 -18 36 -84 78 -120 64 -54 72 -60 193 -121 66 -33 130 -67 142 -74 26 -17 30 -14 35 24 3 29 -2 32 -129 97 -127 64 -223 130 -223 152 0 15 105 1 170 -23 30 -11 60 -20 66 -20 16 0 26 41 13 56 -25 30 -193 57 -297 47z"
       id="path76" />
    <path
       d="M4743 3427 c-9 -20 -7 -29 15 -57 39 -50 32 -105 -30 -223 -11 -21 -18 -39 -16 -40 2 -1 14 -8 26 -15 30 -17 38 -6 81 98 46 110 41 164 -18 228 -36 38 -44 40 -58 9z"
       id="path78" />
    <path
       d="M304 3408 c-25 -12 -24 -15 41 -112 22 -32 45 -66 50 -76 8 -13 15 -15 33 -7 27 12 29 46 5 73 -31 34 -83 112 -83 123 0 13 -18 13 -46 -1z"
       id="path80" />
    <path
       d="M285 3302 c-26 -9 -114 -61 -138 -81 -51 -44 -79 -80 -89 -113 -12 -41 -4 -116 16 -144 14 -18 15 -18 34 6 15 18 18 34 14 68 -5 42 19 112 38 112 3 0 15 8 26 18 10 10 40 29 67 42 26 13 47 27 47 32 0 4 9 8 19 8 28 0 33 13 15 38 -16 23 -18 24 -49 14z"
       id="path82" />
    <path
       d="M4533 3251 c-30 -38 -66 -136 -66 -181 0 -44 25 -94 69 -137 36 -37 49 -41 58 -17 11 28 6 49 -14 62 -28 17 -52 81 -46 117 4 17 20 59 38 94 31 61 32 64 13 77 -25 18 -26 18 -52 -15z"
       id="path84" />
    <path
       d="M4832 3176 c-8 -19 -7 -27 6 -40 13 -13 17 -34 16 -91 0 -40 -5 -79 -11 -87 -6 -7 -22 -34 -36 -60 -22 -40 -24 -50 -14 -72 17 -36 30 -32 57 17 13 23 28 48 34 56 16 21 46 122 46 159 0 56 -45 142 -75 142 -6 0 -17 -11 -23 -24z"
       id="path86" />
    <path
       d="M208 3164 c-19 -19 -11 -58 21 -103 12 -16 21 -34 21 -40 0 -15 48 -91 58 -91 15 1 42 28 42 42 0 9 -6 20 -12 26 -7 6 -31 49 -53 96 -22 47 -45 86 -50 86 -6 0 -18 -7 -27 -16z"
       id="path88" />
    <path
       d="M4567 3151 c-16 -27 -9 -51 15 -51 12 0 112 -72 121 -87 4 -7 13 -13 19 -13 6 0 21 -10 33 -22 45 -45 51 -47 63 -27 7 10 12 23 12 28 0 14 -53 71 -66 71 -7 0 -14 4 -16 8 -4 10 -115 92 -124 92 -4 0 -15 7 -24 15 -14 13 -18 12 -33 -14z"
       id="path90" />
    <path
       d="M473 3133 c-18 -12 -23 -25 -23 -62 0 -39 -6 -52 -36 -83 -19 -21 -42 -38 -50 -38 -8 0 -14 -4 -14 -9 0 -4 -19 -21 -42 -36 -70 -45 -78 -56 -60 -82 16 -26 37 -30 49 -10 4 7 37 34 73 59 122 87 159 148 140 234 -10 45 -10 45 -37 27z"
       id="path92" />
    <path
       d="M131 2969 c-44 -45 -81 -85 -81 -90 0 -4 -12 -25 -26 -46 -25 -37 -25 -41 -22 -178 3 -121 6 -146 25 -186 13 -25 23 -51 23 -57 0 -18 25 -14 44 6 15 18 15 23 -10 88 -33 87 -39 231 -12 279 9 17 21 40 27 52 5 11 41 52 79 90 68 67 70 69 56 96 -8 15 -16 27 -18 27 -2 0 -40 -36 -85 -81z"
       id="path94" />
    <path
       d="M4647 2993 c-8 -16 -21 -41 -29 -58 -65 -126 -79 -188 -53 -245 10 -22 21 -40 25 -40 18 0 37 47 32 82 -4 39 16 105 54 173 35 63 39 84 17 100 -25 20 -30 19 -46 -12z"
       id="path96" />
    <path
       d="M4891 2880 c-8 -20 -10 -35 -4 -43 29 -38 46 -112 40 -181 -11 -138 -45 -224 -120 -302 -39 -42 -39 -42 -21 -68 l17 -27 39 38 c96 92 148 222 151 373 1 70 -2 95 -22 140 -13 30 -34 65 -45 77 l-21 23 -14 -30z"
       id="path98" />
    <path
       d="M149 2874 c-11 -30 -4 -58 19 -83 10 -9 41 -45 71 -79 l53 -62 20 26 c23 28 27 19 -45 98 -16 17 -42 52 -59 79 -17 26 -35 47 -40 47 -5 0 -13 -12 -19 -26z"
       id="path100" />
    <path
       d="M4675 2871 c-15 -30 -15 -31 28 -70 45 -42 77 -111 77 -168 0 -37 -8 -40 -49 -19 -25 13 -29 13 -44 -5 -22 -25 -21 -33 6 -47 30 -15 115 -42 132 -42 17 0 30 94 20 147 -12 65 -53 138 -104 187 l-50 47 -16 -30z"
       id="path102" />
    <path
       d="M372 2855 c-21 -9 -23 -14 -17 -70 9 -81 -4 -108 -69 -150 -80 -51 -90 -48 -82 23 5 49 3 63 -12 82 -16 20 -19 21 -31 6 -15 -18 -21 -209 -8 -223 13 -12 140 36 189 72 83 61 108 151 67 240 -12 27 -17 29 -37 20z"
       id="path104" />
    <path
       d="M4679 2733 c-42 -47 -79 -101 -79 -116 0 -9 -3 -17 -7 -19 -21 -9 -63 -139 -63 -193 0 -38 26 -128 52 -179 l24 -47 23 25 24 25 -27 59 c-36 81 -36 169 -1 238 14 27 25 53 25 57 0 13 80 117 90 117 15 0 12 27 -6 44 -21 22 -26 20 -55 -11z"
       id="path106" />
    <path
       d="M360 2590 c-19 -19 -19 -22 -4 -58 40 -93 44 -143 14 -204 -11 -23 -20 -48 -20 -55 0 -7 -11 -31 -25 -53 -14 -22 -25 -46 -25 -55 0 -8 -4 -15 -8 -15 -4 0 -14 -15 -21 -32 -30 -69 -31 -78 -10 -99 25 -25 39 -24 39 1 0 11 11 38 25 60 14 22 25 44 25 50 0 6 11 28 25 50 14 22 25 44 25 50 0 6 11 32 25 58 20 38 25 61 25 119 0 56 -6 85 -25 127 -14 30 -25 60 -25 65 0 17 -18 13 -40 -9z"
       id="path108" />
    <path
       d="M240 2471 c-118 -41 -194 -93 -228 -158 -7 -12 -12 -45 -12 -74 0 -41 6 -62 27 -93 42 -62 56 -66 73 -22 6 15 2 29 -16 53 -13 17 -24 45 -24 60 0 33 54 113 76 113 8 0 14 4 14 8 0 10 65 42 86 42 13 0 15 -8 10 -43 -6 -36 -3 -46 14 -62 17 -16 23 -17 30 -6 14 24 32 125 28 167 l-3 41 -75 -26z"
       id="path110" />
    <path
       d="M4660 2446 c0 -57 31 -157 68 -219 12 -21 22 -41 22 -44 0 -3 11 -18 24 -34 13 -15 26 -34 29 -41 3 -10 10 -8 26 6 27 25 27 38 -4 74 -14 17 -25 37 -25 46 0 9 -3 16 -8 16 -12 0 -62 115 -62 143 0 10 39 8 59 -3 14 -7 24 -4 40 12 13 11 19 24 14 28 -4 5 -47 22 -95 39 l-88 30 0 -53z"
       id="path112" />
    <path
       d="M4911 2353 c-12 -13 -12 -24 -3 -60 19 -71 13 -100 -33 -150 -11 -12 -25 -28 -31 -36 -6 -7 -28 -27 -49 -45 -36 -29 -37 -32 -25 -61 7 -17 14 -31 17 -31 2 0 19 16 38 35 19 19 44 39 55 45 11 6 20 17 20 25 0 8 8 19 19 24 25 14 71 104 71 138 0 32 -30 103 -51 119 -11 9 -17 8 -28 -3z"
       id="path114" />
    <path
       d="M135 2334 c-19 -14 -17 -18 60 -89 72 -68 81 -74 93 -58 15 20 16 63 2 63 -6 0 -33 23 -60 50 -53 54 -64 58 -95 34z"
       id="path116" />
    <path
       d="M4654 2207 c-59 -62 -104 -124 -104 -141 0 -8 -4 -18 -10 -21 -13 -8 -13 -108 1 -138 10 -21 14 -23 34 -13 21 10 23 17 22 71 -1 52 4 67 32 113 18 28 40 58 49 65 10 7 24 21 33 32 15 18 15 22 0 47 l-17 27 -40 -42z"
       id="path118" />
    <path
       d="M168 2205 c-10 -13 -18 -28 -18 -33 0 -5 -8 -16 -19 -26 -10 -9 -26 -34 -36 -56 -10 -22 -21 -40 -26 -40 -14 0 -31 -101 -24 -148 7 -48 77 -158 94 -148 4 3 11 -29 14 -72 7 -77 38 -189 70 -249 20 -37 71 -78 107 -86 14 -3 57 -15 95 -26 82 -23 346 -71 393 -71 20 0 32 5 32 14 0 7 7 20 16 27 14 11 1 16 -92 31 -60 10 -144 23 -186 28 -43 6 -106 19 -140 29 -35 11 -75 22 -90 25 -31 7 -69 40 -87 74 -42 79 -61 239 -40 332 22 97 22 97 -2 114 -18 12 -25 13 -31 3 -9 -14 -34 -99 -41 -137 -4 -21 -4 -20 -6 7 0 18 -12 49 -26 69 -14 20 -25 51 -25 68 0 31 48 134 78 169 14 15 30 42 47 74 5 9 -27 54 -37 53 -2 0 -11 -11 -20 -25z"
       id="path120" />
    <path
       d="M362 2125 c-16 -36 -15 -48 8 -75 41 -47 34 -98 -36 -257 -18 -41 -18 -40 14 -57 27 -14 28 -13 38 12 6 15 23 57 38 94 34 83 38 177 10 228 -11 18 -25 43 -32 56 -17 31 -26 30 -40 -1z"
       id="path122" />
    <path
       d="M4669 2104 l-24 -25 28 -52 c15 -29 27 -57 27 -62 0 -6 11 -37 25 -70 13 -33 25 -70 25 -82 0 -17 4 -21 18 -16 55 19 44 87 -47 275 l-28 58 -24 -26z"
       id="path124" />
    <path
       d="M162 2050 c-6 -11 -12 -25 -11 -32 0 -13 188 -173 193 -166 2 1 6 17 9 35 6 28 2 35 -37 67 -24 19 -63 53 -87 75 -24 22 -46 41 -49 41 -3 0 -11 -9 -18 -20z"
       id="path126" />
    <path
       d="M4881 2036 c-19 -20 -21 -28 -12 -44 17 -31 13 -79 -9 -122 -21 -41 -97 -105 -137 -116 -18 -5 -23 -13 -23 -40 0 -19 2 -34 4 -34 15 0 76 27 98 44 15 12 41 31 57 44 42 32 91 122 91 165 0 30 -33 127 -43 127 -2 0 -14 -11 -26 -24z"
       id="path128" />
    <path
       d="M4591 1883 c-87 -81 -131 -152 -131 -211 0 -26 3 -30 18 -25 27 11 44 31 67 82 13 28 49 71 88 107 37 34 67 68 67 77 0 22 -11 47 -20 47 -4 0 -44 -34 -89 -77z"
       id="path130" />
    <path
       d="M427 1807 c-17 -29 -17 -31 3 -52 11 -12 20 -35 20 -53 l0 -32 -37 17 c-21 8 -60 26 -88 38 -85 38 -85 38 -85 2 0 -29 5 -36 45 -55 25 -12 52 -22 59 -22 7 0 30 -11 50 -25 25 -17 38 -21 41 -12 11 37 13 40 14 16 1 -14 -13 -47 -31 -73 l-31 -48 -18 23 c-10 13 -19 41 -19 61 0 26 -6 40 -19 48 -39 20 -44 13 -39 -54 5 -52 12 -73 38 -110 19 -25 39 -46 47 -46 19 0 50 28 87 80 71 98 74 210 8 293 l-28 35 -17 -31z"
       id="path132" />
    <path
       d="M4618 1801 c-22 -22 -23 -51 -2 -99 20 -48 22 -112 5 -146 -17 -31 -21 -32 -50 -5 -20 19 -26 20 -47 9 -13 -8 -24 -17 -24 -21 0 -12 74 -85 93 -92 23 -8 57 25 87 83 28 54 24 142 -8 212 -12 26 -22 54 -22 62 0 20 -11 19 -32 -3z"
       id="path134" />
    <path
       d="M4794 1703 c-29 -14 -32 -20 -37 -84 -3 -38 -14 -85 -23 -105 -23 -49 -78 -102 -112 -110 -15 -3 -56 -15 -92 -26 -36 -11 -90 -24 -120 -28 -30 -4 -104 -17 -165 -28 -60 -12 -151 -27 -201 -33 -82 -10 -93 -14 -103 -36 -23 -50 -19 -51 92 -31 56 10 138 22 182 27 44 5 117 19 162 30 45 12 90 21 102 21 34 0 215 63 235 82 11 10 23 18 28 18 4 0 8 6 8 14 0 8 7 22 17 31 26 26 55 123 60 203 3 39 4 72 2 71 -2 0 -18 -7 -35 -16z"
       id="path136" />
    <path
       d="M2298 1391 c-27 -32 -48 -63 -48 -68 0 -6 -8 -25 -17 -44 -13 -23 -18 -57 -18 -109 0 -52 5 -86 18 -109 9 -19 17 -39 17 -44 0 -6 11 -25 25 -43 14 -18 25 -36 25 -40 0 -9 9 -19 87 -97 81 -81 88 -87 101 -87 7 0 12 -4 12 -8 0 -5 19 -23 43 -40 43 -30 44 -30 60 -11 23 26 21 36 -10 56 -16 9 -36 24 -45 32 -9 9 -31 27 -49 41 -17 14 -50 45 -73 68 -22 24 -49 51 -58 60 -10 9 -18 21 -18 26 0 5 -7 17 -15 26 -26 29 -55 122 -55 175 0 58 16 108 47 150 21 29 22 29 41 12 20 -18 21 -18 35 9 14 27 13 31 -12 66 -14 21 -30 38 -36 38 -5 0 -31 -27 -57 -59z"
       id="path138" />
    <path
       d="M2474 1416 c-57 -66 -63 -76 -93 -145 -33 -73 -40 -144 -20 -184 18 -34 77 -87 98 -87 22 0 79 64 87 97 9 32 0 67 -32 137 l-27 59 -19 -22 c-22 -28 -23 -50 -3 -87 18 -34 19 -68 4 -96 -11 -20 -11 -20 -32 2 -25 28 -27 92 -4 140 10 18 17 37 17 42 0 4 13 26 29 48 26 37 29 38 50 24 11 -8 21 -20 21 -25 0 -6 12 -27 28 -46 25 -34 27 -43 27 -132 0 -96 0 -97 -43 -169 -24 -39 -46 -72 -50 -72 -4 0 -12 -10 -18 -23 -8 -18 -6 -26 6 -40 28 -29 29 -28 102 78 44 65 78 165 78 230 0 51 -27 130 -64 186 -27 40 -99 119 -109 119 -3 0 -18 -15 -33 -34z"
       id="path140" />
    <path
       d="M985 1387 c-35 -21 -65 -50 -101 -100 -41 -57 -42 -65 -8 -73 20 -5 31 -1 50 19 13 14 24 30 24 34 0 10 71 73 83 73 5 0 11 -9 14 -20 4 -15 14 -20 39 -20 32 0 33 1 24 28 -24 63 -32 72 -69 72 -20 -1 -45 -6 -56 -13z"
       id="path142" />
    <path
       d="M3903 1383 c-3 -10 -16 -40 -28 -68 -13 -27 -26 -76 -29 -109 -6 -51 -4 -58 10 -52 8 3 22 6 30 6 8 0 14 7 14 15 0 15 24 93 43 136 9 23 14 25 34 16 13 -5 23 -14 23 -19 0 -10 61 -10 78 1 10 6 1 19 -35 50 -40 34 -55 41 -91 41 -32 0 -44 -4 -49 -17z"
       id="path144" />
    <path
       d="M971 1271 c-17 -23 -19 -32 -9 -35 22 -6 272 -36 305 -36 27 0 30 3 25 25 -6 35 -21 41 -142 55 -58 6 -117 14 -131 17 -21 4 -31 -1 -48 -26z"
       id="path146" />
    <path
       d="M490 1231 c-60 -20 -89 -41 -82 -59 44 -97 104 -201 126 -218 9 -6 16 -15 16 -19 0 -22 164 -155 191 -155 20 0 -5 66 -34 90 -28 22 -98 92 -131 130 -26 31 -74 118 -78 141 -3 22 1 24 52 28 77 4 257 -17 370 -44 149 -36 160 -37 160 -17 0 10 -6 26 -13 35 -33 44 -495 115 -577 88z"
       id="path148" />
    <path
       d="M4320 1234 c-14 -2 -55 -9 -92 -15 l-66 -10 16 -30 c16 -28 20 -30 57 -24 130 20 265 18 265 -4 0 -13 -81 -145 -91 -149 -5 -2 -9 -9 -9 -15 0 -20 -113 -118 -165 -142 -104 -50 -170 -51 -249 -4 -44 25 -86 111 -86 175 l0 47 -32 -7 c-17 -3 -32 -7 -33 -9 -2 -1 3 -33 9 -72 12 -71 33 -125 48 -125 4 0 8 -6 8 -14 0 -14 42 -49 89 -73 13 -8 60 -13 112 -13 84 0 94 2 159 37 98 51 224 175 244 241 4 12 11 22 16 22 5 0 16 21 26 48 10 26 24 57 31 68 13 20 11 23 -29 44 -42 22 -164 35 -228 24z"
       id="path150" />
    <path
       d="M4099 1213 c-15 -4 -15 -8 -2 -46 7 -23 18 -51 22 -62 5 -11 12 -29 16 -40 11 -30 35 -166 35 -199 0 -26 2 -28 28 -21 15 3 31 10 36 15 14 14 -30 220 -63 292 -11 26 -21 52 -21 57 0 11 -21 13 -51 4z"
       id="path152" />
    <path
       d="M1093 1138 c11 -75 -4 -170 -36 -237 -28 -57 -93 -93 -165 -93 -47 0 -48 -1 -44 -29 4 -29 5 -29 69 -29 56 0 71 4 117 34 43 27 60 47 85 97 30 60 31 67 31 191 l0 128 -33 0 -34 0 10 -62z"
       id="path154" />
    <path
       d="M3965 1168 c-44 -11 -118 -30 -165 -43 -47 -13 -107 -29 -133 -36 -37 -9 -54 -20 -73 -48 -16 -23 -20 -37 -12 -40 6 -2 50 8 97 22 157 47 268 77 285 77 9 0 43 7 76 16 l59 17 -15 28 c-17 34 -14 33 -119 7z"
       id="path156" />
    <path
       d="M1778 1162 c-25 -15 -42 -57 -34 -84 3 -7 7 -25 10 -40 6 -24 11 -28 41 -28 40 0 41 4 19 48 -21 42 -10 56 38 49 43 -6 78 -31 78 -56 0 -31 -42 -45 -146 -51 l-100 -5 8 -32 c8 -31 11 -33 52 -33 85 0 193 27 225 56 59 53 24 145 -69 178 -55 20 -87 19 -122 -2z"
       id="path158" />
    <path
       d="M3085 1163 c-62 -32 -85 -63 -85 -114 0 -43 4 -51 33 -73 43 -33 71 -33 85 -1 10 22 9 26 -24 41 -46 22 -48 28 -22 59 25 29 100 46 112 26 8 -12 -30 -97 -88 -196 -57 -97 -56 -96 -103 -165 -24 -34 -43 -65 -43 -67 0 -3 -13 -21 -30 -40 -36 -41 -37 -46 -5 -67 30 -19 35 -20 35 -3 0 8 11 24 25 37 14 13 25 27 25 31 0 4 19 35 43 69 23 34 47 69 52 78 6 9 19 30 29 46 48 71 126 240 126 269 0 38 -6 47 -42 70 -33 20 -82 20 -123 0z"
       id="path160" />
    <path
       d="M3554 1125 c-3 -14 -10 -25 -14 -25 -9 0 -45 -54 -132 -196 -36 -58 -57 -123 -58 -174 l0 -25 25 30 c13 17 24 33 25 36 0 7 59 100 85 134 8 10 15 25 15 32 0 7 4 13 8 13 5 0 15 11 22 25 7 13 17 22 21 19 5 -3 6 1 4 8 -3 8 5 25 17 38 25 26 58 84 58 100 0 5 -16 10 -35 10 -29 0 -36 -4 -41 -25z"
       id="path162" />
    <path
       d="M797 1098 c-3 -18 -15 -67 -27 -108 -29 -101 -24 -194 14 -269 29 -56 85 -121 105 -121 6 0 11 -5 11 -10 0 -16 159 -86 211 -93 l45 -6 -4 29 c-4 26 -11 32 -51 44 -59 18 -137 52 -157 68 -86 72 -126 145 -126 233 -1 44 6 76 42 215 10 38 1 50 -36 50 -17 0 -23 -7 -27 -32z"
       id="path164" />
    <path
       d="M1170 1096 c0 -31 3 -35 33 -41 36 -7 164 -45 277 -81 99 -32 119 -32 113 1 -8 38 -16 42 -223 100 -52 14 -116 33 -141 41 -61 18 -59 19 -59 -20z"
       id="path166" />
    <path
       d="M3420 1014 c-19 -7 -69 -13 -110 -14 l-75 -1 -16 -34 -16 -35 52 0 c28 0 77 5 108 11 48 10 60 17 78 46 12 19 20 35 18 37 -2 2 -20 -2 -39 -10z"
       id="path168" />
    <path
       d="M1485 940 c8 -9 15 -20 15 -24 0 -4 11 -22 25 -40 14 -18 25 -38 25 -43 0 -6 7 -16 15 -23 8 -7 27 -34 42 -61 14 -27 30 -49 35 -49 4 0 8 -6 8 -13 0 -8 11 -27 25 -43 14 -16 25 -32 25 -36 0 -9 58 -94 83 -122 9 -11 17 -23 17 -28 0 -14 50 -8 56 7 6 16 -32 85 -47 85 -5 0 -9 6 -9 13 0 8 -9 25 -21 38 -12 13 -30 40 -40 59 -23 41 -39 66 -96 150 -24 34 -43 66 -43 72 0 22 -50 61 -89 68 -39 7 -41 6 -26 -10z"
       id="path170" />
    <path
       d="M1839 923 l-26 -4 28 -53 c16 -30 36 -59 44 -66 8 -7 15 -21 15 -31 0 -11 4 -19 8 -19 4 0 21 -22 37 -50 16 -27 33 -50 37 -50 5 0 12 -8 15 -17 4 -10 24 -42 46 -71 21 -30 36 -56 34 -59 -9 -8 -27 7 -27 23 0 19 -13 18 -43 -6 -14 -11 -28 -20 -32 -20 -9 0 -175 -80 -175 -84 0 -2 12 -11 26 -21 22 -14 31 -15 57 -5 64 25 176 81 187 95 15 19 30 19 30 2 0 -7 10 -23 23 -34 12 -12 38 -42 57 -67 19 -25 38 -46 41 -46 4 0 17 8 29 18 l22 18 -41 50 c-23 27 -51 59 -62 70 -10 12 -19 26 -19 31 0 6 -9 18 -19 27 -17 16 -98 128 -126 175 -5 9 -20 31 -32 48 -13 17 -23 35 -23 41 0 5 -7 15 -16 23 -8 7 -24 30 -35 51 -11 21 -23 37 -27 37 -4 -1 -19 -4 -33 -6z"
       id="path172" />
    <path
       d="M3315 912 c-12 -8 -55 -210 -55 -257 0 -20 -3 -26 -9 -17 -8 13 -19 1 -56 -60 -31 -51 -109 -159 -126 -174 -10 -9 -19 -22 -19 -27 0 -5 -10 -20 -22 -33 -25 -25 -53 -57 -82 -91 -18 -21 -17 -22 15 -39 26 -13 34 -14 37 -4 3 8 15 23 28 35 13 12 24 27 24 32 0 6 11 18 25 27 14 9 25 23 25 31 0 8 3 15 8 15 6 0 59 72 87 119 6 10 18 25 28 35 10 11 18 35 19 64 1 45 2 45 7 -13 5 -53 8 -60 26 -57 35 7 45 23 45 77 0 29 6 90 14 136 8 46 17 106 21 133 4 27 9 55 12 62 6 15 -34 20 -52 6z"
       id="path174" />
    <path
       d="M1228 900 c-10 -6 -30 -37 -45 -68 -25 -52 -28 -67 -28 -172 0 -104 3 -121 29 -180 15 -36 36 -74 47 -86 10 -11 19 -26 19 -32 0 -7 4 -12 9 -12 5 0 19 -11 32 -25 13 -13 29 -25 35 -25 6 0 17 -6 23 -14 35 -41 222 -106 308 -106 20 0 20 1 5 35 -15 32 -20 35 -59 35 -24 0 -66 11 -97 25 -30 14 -58 25 -63 25 -4 0 -21 11 -37 25 -16 14 -34 25 -40 25 -6 0 -32 23 -58 51 -51 55 -84 133 -95 226 -5 47 9 137 28 173 4 8 10 23 13 33 9 28 66 22 112 -12 74 -54 88 -76 88 -137 1 -50 -2 -58 -29 -80 -42 -35 -91 -54 -137 -54 -37 0 -39 -2 -36 -27 3 -28 4 -28 70 -26 73 3 101 15 155 69 48 47 60 99 38 166 -16 53 -45 90 -112 143 -24 19 -47 27 -95 31 -37 3 -70 0 -80 -6z"
       id="path176" />
    <path
       d="M3640 901 c-72 -18 -167 -127 -177 -202 -4 -30 1 -52 22 -94 16 -30 32 -55 36 -55 5 0 24 -11 43 -24 78 -53 298 -53 412 0 28 13 54 24 57 24 15 0 104 71 127 101 59 77 63 97 19 91 -20 -3 -42 -19 -67 -48 -20 -24 -40 -44 -45 -44 -4 0 -17 -8 -27 -18 -11 -10 -50 -31 -87 -47 -57 -24 -85 -29 -178 -33 -112 -4 -121 -2 -201 40 -23 12 -44 60 -44 97 0 68 105 166 172 159 30 -3 34 -7 51 -58 18 -56 25 -169 13 -208 -6 -19 -3 -22 18 -22 43 0 56 24 56 101 0 81 -38 204 -71 232 -21 17 -78 21 -129 8z"
       id="path178" />
    <path
       d="M2396 781 c-7 -11 -164 -131 -172 -131 -3 0 -20 -11 -38 -25 -18 -14 -38 -25 -44 -25 -16 0 -15 -21 3 -43 13 -18 15 -18 49 -2 19 9 40 23 47 31 6 8 16 14 21 14 6 0 23 10 38 23 15 12 43 33 61 47 18 14 47 37 64 52 29 26 30 26 11 47 -21 23 -32 26 -40 12z"
       id="path180" />
    <path
       d="M2687 643 c-18 -23 -16 -43 5 -43 6 0 26 -11 44 -25 18 -14 38 -25 44 -25 6 0 26 -11 44 -25 18 -14 38 -25 45 -25 6 0 29 -11 51 -25 22 -14 44 -25 49 -25 6 0 26 -10 46 -21 l36 -21 23 25 24 26 -124 61 c-68 34 -126 66 -129 71 -4 5 -15 9 -25 9 -10 0 -20 4 -22 8 -1 5 -23 20 -48 34 l-45 25 -18 -24z"
       id="path182" />
    <path
       d="M2349 642 l-22 -19 79 -83 c43 -46 114 -113 157 -150 l79 -67 24 21 24 21 -47 40 c-27 22 -97 88 -157 147 -60 60 -110 108 -111 108 -2 0 -13 -8 -26 -18z"
       id="path184" />
    <path
       d="M1669 559 c-1 -83 -20 -142 -49 -155 -34 -15 -110 -6 -117 14 -9 23 39 61 71 55 15 -3 29 -9 32 -14 3 -5 14 -9 25 -9 15 0 19 7 19 33 0 28 -5 35 -33 45 -83 30 -157 -6 -171 -82 -11 -57 10 -87 69 -103 70 -18 105 -16 143 7 57 35 95 168 57 200 -8 7 -15 18 -15 25 0 7 -7 18 -15 25 -13 11 -15 5 -16 -41z"
       id="path186" />
    <path
       d="M3350 517 c-41 -20 -140 -86 -140 -93 0 -2 12 -10 28 -17 30 -16 47 -13 76 14 11 11 45 28 75 40 l56 20 22 -26 c13 -14 23 -30 23 -35 0 -22 -127 -31 -140 -10 -10 17 -50 -9 -50 -32 0 -21 58 -48 103 -48 40 0 108 20 130 38 25 22 21 73 -9 118 -15 21 -32 42 -38 46 -22 15 -92 7 -136 -15z"
       id="path190" />
    <path
       d="M2803 483 c-4 -10 -16 -28 -27 -39 -12 -12 -32 -34 -45 -50 -36 -45 -133 -145 -180 -187 -40 -36 -46 -57 -15 -57 8 0 14 -5 14 -10 0 -20 37 9 121 96 46 47 94 96 107 109 12 12 22 27 22 32 0 6 11 18 25 27 14 9 25 21 25 28 0 6 8 17 18 24 16 13 16 15 -2 29 -26 20 -55 19 -63 -2z"
       id="path194" />
    <path
       d="M2408 472 c-20 -26 -134 -122 -146 -122 -6 0 -12 -4 -14 -8 -4 -13 -105 -81 -134 -92 -28 -11 -30 -22 -8 -44 26 -26 30 -25 184 81 40 28 144 115 161 137 15 18 15 22 2 43 -18 28 -28 29 -45 5z"
       id="path196" />
    <path
       d="M3718 448 c-10 -12 -18 -28 -18 -35 0 -7 -4 -13 -10 -13 -5 0 -20 -10 -32 -22 -27 -28 -41 -36 -138 -85 -68 -34 -84 -38 -169 -41 -54 -2 -111 1 -133 7 -35 11 -37 14 -27 33 10 18 8 25 -11 40 -20 16 -25 17 -37 5 -8 -7 -16 -29 -19 -48 -9 -56 16 -77 116 -95 73 -14 96 -15 165 -4 77 12 198 61 235 95 9 8 20 15 24 15 21 0 136 137 136 161 0 19 -65 9 -82 -13z"
       id="path198" />
    <path
       d="M1732 421 c-10 -28 -8 -34 28 -73 36 -39 52 -78 32 -78 -5 0 -16 -6 -26 -13 -16 -12 -16 -14 3 -36 18 -21 24 -22 49 -12 81 34 62 117 -50 219 l-26 23 -10 -30z"
       id="path200" />
    <path
       d="M3164 399 c-18 -20 -13 -49 8 -49 13 0 49 -31 80 -69 21 -25 63 -29 54 -5 -3 9 -6 24 -6 33 0 23 -48 74 -88 94 -28 14 -32 13 -48 -4z"
       id="path202" />
    <path
       d="M1891 371 c-20 -15 -21 -19 -7 -24 9 -4 16 -14 16 -22 0 -20 254 -275 274 -275 8 0 32 -10 52 -22 52 -31 114 -28 193 8 l63 28 -26 23 -27 22 -50 -19 c-60 -24 -85 -25 -123 -5 -15 8 -32 15 -37 15 -15 0 -61 40 -166 148 -56 57 -105 113 -108 123 -8 24 -23 24 -54 0z"
       id="path204" />
    <path
       d="M1688 343 c-9 -16 -17 -37 -19 -48 -4 -28 10 -95 20 -95 5 0 11 -8 13 -18 3 -10 27 -33 53 -50 44 -29 56 -32 124 -32 53 0 89 6 119 20 l42 19 -26 26 c-21 21 -28 23 -47 14 -57 -31 -140 -27 -174 7 -8 8 -18 14 -23 14 -11 0 -40 58 -40 81 0 10 5 21 10 24 16 10 12 36 -7 51 -25 18 -26 18 -45 -13z"
       id="path208" />
    <path
       d="M2745 283 c-15 -23 -15 -26 2 -39 10 -7 21 -14 25 -14 4 0 13 -6 20 -13 7 -7 61 -36 120 -65 103 -50 112 -52 189 -52 74 0 84 3 127 32 l46 32 -40 11 c-30 8 -45 8 -66 -3 -40 -19 -97 -17 -153 6 -28 11 -65 25 -82 32 -18 7 -33 15 -33 19 0 3 -22 17 -50 30 -27 13 -50 27 -50 31 0 4 -9 10 -20 13 -13 3 -24 -3 -35 -20z"
       id="path212" />
    <path
       d="M2305 280 c-17 -19 -17 -20 16 -52 84 -80 138 -128 147 -128 5 0 17 -9 27 -20 29 -33 162 -83 201 -75 47 8 138 51 159 75 10 11 24 20 30 20 14 0 28 27 20 40 -13 21 -58 17 -89 -9 -17 -15 -56 -35 -88 -46 -56 -18 -56 -18 -113 3 -60 23 -144 83 -227 163 -28 27 -54 49 -58 49 -4 0 -15 -9 -25 -20z"
       id="path214" />
  </g>
</svg>
